<mxfile host="app.diagrams.net" modified="2023-11-03T21:13:45.112Z" agent="Mozilla/5.0 (Macintosh; Intel Mac OS X 10_15_7) AppleWebKit/605.1.15 (KHTML, like Gecko) Version/17.0 Safari/605.1.15" etag="wueX05plc7GAYqIkwzy7" version="22.0.8" type="device" pages="2">
  <diagram name="Page-1" id="4uhAPYxLTDf2SchsW1_9">
    <mxGraphModel dx="2560" dy="2253" grid="1" gridSize="10" guides="1" tooltips="1" connect="1" arrows="1" fold="1" page="1" pageScale="1" pageWidth="850" pageHeight="1100" math="0" shadow="0">
      <root>
        <mxCell id="0" />
        <mxCell id="1" parent="0" />
        <mxCell id="ctChK_Ej9cGx2efFHP4d-6" style="edgeStyle=orthogonalEdgeStyle;rounded=0;orthogonalLoop=1;jettySize=auto;html=1;entryX=0.75;entryY=1;entryDx=0;entryDy=0;" parent="1" source="ctChK_Ej9cGx2efFHP4d-5" target="DeEWB1xdx3V2AKXxCXWh-58" edge="1">
          <mxGeometry relative="1" as="geometry">
            <mxPoint x="310.52499999999964" y="-110" as="targetPoint" />
          </mxGeometry>
        </mxCell>
        <mxCell id="ctChK_Ej9cGx2efFHP4d-5" value="BDSM Test&lt;br&gt;MBTI Type Test&lt;br&gt;Enneagram Test" style="text;strokeColor=none;fillColor=none;spacingLeft=4;spacingRight=4;overflow=hidden;rotatable=0;points=[[0,0.5],[1,0.5]];portConstraint=eastwest;fontSize=12;whiteSpace=wrap;html=1;" parent="1" vertex="1">
          <mxGeometry x="380.00000000000006" y="-80" width="120" height="80" as="geometry" />
        </mxCell>
        <mxCell id="ctChK_Ej9cGx2efFHP4d-12" value="Avatar" style="ellipse;whiteSpace=wrap;html=1;align=center;" parent="1" vertex="1">
          <mxGeometry x="30" y="620" width="100" height="40" as="geometry" />
        </mxCell>
        <mxCell id="ctChK_Ej9cGx2efFHP4d-16" value="location" style="ellipse;whiteSpace=wrap;html=1;align=center;" parent="1" vertex="1">
          <mxGeometry x="30" y="521.5" width="100" height="40" as="geometry" />
        </mxCell>
        <mxCell id="ctChK_Ej9cGx2efFHP4d-17" value="height" style="ellipse;whiteSpace=wrap;html=1;align=center;" parent="1" vertex="1">
          <mxGeometry x="30" y="470" width="100" height="40" as="geometry" />
        </mxCell>
        <mxCell id="ctChK_Ej9cGx2efFHP4d-18" value="email" style="ellipse;whiteSpace=wrap;html=1;align=center;" parent="1" vertex="1">
          <mxGeometry x="30" y="370" width="100" height="40" as="geometry" />
        </mxCell>
        <mxCell id="ctChK_Ej9cGx2efFHP4d-19" value="username" style="ellipse;whiteSpace=wrap;html=1;align=center;" parent="1" vertex="1">
          <mxGeometry x="30" y="315" width="100" height="40" as="geometry" />
        </mxCell>
        <mxCell id="ctChK_Ej9cGx2efFHP4d-20" value="password" style="ellipse;whiteSpace=wrap;html=1;align=center;" parent="1" vertex="1">
          <mxGeometry x="30" y="420" width="100" height="40" as="geometry" />
        </mxCell>
        <mxCell id="ctChK_Ej9cGx2efFHP4d-21" value="total_entries_diary" style="ellipse;whiteSpace=wrap;html=1;align=center;" parent="1" vertex="1">
          <mxGeometry x="30" y="260" width="100" height="40" as="geometry" />
        </mxCell>
        <mxCell id="ctChK_Ej9cGx2efFHP4d-23" value="gender" style="ellipse;shape=doubleEllipse;margin=3;whiteSpace=wrap;html=1;align=center;" parent="1" vertex="1">
          <mxGeometry x="30" y="570" width="100" height="40" as="geometry" />
        </mxCell>
        <mxCell id="ctChK_Ej9cGx2efFHP4d-24" value="&lt;font style=&quot;font-size: 17px;&quot;&gt;Account&lt;/font&gt;" style="rounded=0;whiteSpace=wrap;html=1;" parent="1" vertex="1">
          <mxGeometry x="160" y="195" width="120" height="60" as="geometry" />
        </mxCell>
        <mxCell id="ctChK_Ej9cGx2efFHP4d-25" value="" style="endArrow=none;html=1;rounded=0;entryX=0;entryY=0;entryDx=0;entryDy=0;exitX=1;exitY=0.5;exitDx=0;exitDy=0;" parent="1" source="pONqlh3g68kiD31-20ed-17" target="ctChK_Ej9cGx2efFHP4d-24" edge="1">
          <mxGeometry relative="1" as="geometry">
            <mxPoint x="180" y="280" as="sourcePoint" />
            <mxPoint x="340" y="280" as="targetPoint" />
          </mxGeometry>
        </mxCell>
        <mxCell id="ctChK_Ej9cGx2efFHP4d-30" value="" style="endArrow=none;html=1;rounded=0;entryX=0;entryY=1;entryDx=0;entryDy=0;exitX=1;exitY=0.5;exitDx=0;exitDy=0;" parent="1" source="ctChK_Ej9cGx2efFHP4d-17" target="ctChK_Ej9cGx2efFHP4d-24" edge="1">
          <mxGeometry relative="1" as="geometry">
            <mxPoint x="180" y="280" as="sourcePoint" />
            <mxPoint x="340" y="280" as="targetPoint" />
          </mxGeometry>
        </mxCell>
        <mxCell id="ctChK_Ej9cGx2efFHP4d-31" value="" style="endArrow=none;html=1;rounded=0;entryX=0;entryY=1;entryDx=0;entryDy=0;exitX=1;exitY=0.5;exitDx=0;exitDy=0;" parent="1" source="ctChK_Ej9cGx2efFHP4d-20" target="ctChK_Ej9cGx2efFHP4d-24" edge="1">
          <mxGeometry relative="1" as="geometry">
            <mxPoint x="180" y="280" as="sourcePoint" />
            <mxPoint x="340" y="280" as="targetPoint" />
          </mxGeometry>
        </mxCell>
        <mxCell id="ctChK_Ej9cGx2efFHP4d-32" value="" style="endArrow=none;html=1;rounded=0;entryX=0;entryY=1;entryDx=0;entryDy=0;exitX=1;exitY=0;exitDx=0;exitDy=0;" parent="1" source="ctChK_Ej9cGx2efFHP4d-18" target="ctChK_Ej9cGx2efFHP4d-24" edge="1">
          <mxGeometry relative="1" as="geometry">
            <mxPoint x="180" y="280" as="sourcePoint" />
            <mxPoint x="340" y="280" as="targetPoint" />
          </mxGeometry>
        </mxCell>
        <mxCell id="ctChK_Ej9cGx2efFHP4d-33" value="" style="endArrow=none;html=1;rounded=0;entryX=0;entryY=0.75;entryDx=0;entryDy=0;exitX=1;exitY=0;exitDx=0;exitDy=0;" parent="1" source="ctChK_Ej9cGx2efFHP4d-19" target="ctChK_Ej9cGx2efFHP4d-24" edge="1">
          <mxGeometry relative="1" as="geometry">
            <mxPoint x="180" y="280" as="sourcePoint" />
            <mxPoint x="340" y="280" as="targetPoint" />
          </mxGeometry>
        </mxCell>
        <mxCell id="ctChK_Ej9cGx2efFHP4d-34" value="" style="endArrow=none;html=1;rounded=0;entryX=1;entryY=0.5;entryDx=0;entryDy=0;exitX=0;exitY=0.5;exitDx=0;exitDy=0;" parent="1" source="ctChK_Ej9cGx2efFHP4d-24" target="ctChK_Ej9cGx2efFHP4d-21" edge="1">
          <mxGeometry relative="1" as="geometry">
            <mxPoint x="180" y="280" as="sourcePoint" />
            <mxPoint x="340" y="280" as="targetPoint" />
          </mxGeometry>
        </mxCell>
        <mxCell id="ctChK_Ej9cGx2efFHP4d-36" value="" style="endArrow=none;html=1;rounded=0;entryX=1;entryY=0.5;entryDx=0;entryDy=0;exitX=0;exitY=0;exitDx=0;exitDy=0;" parent="1" source="ctChK_Ej9cGx2efFHP4d-24" target="pONqlh3g68kiD31-20ed-18" edge="1">
          <mxGeometry relative="1" as="geometry">
            <mxPoint x="180" y="280" as="sourcePoint" />
            <mxPoint x="130.0000000000001" y="118.5" as="targetPoint" />
          </mxGeometry>
        </mxCell>
        <mxCell id="ctChK_Ej9cGx2efFHP4d-52" value="&lt;font style=&quot;font-size: 11px;&quot;&gt;can take&lt;/font&gt;" style="shape=rhombus;double=1;perimeter=rhombusPerimeter;whiteSpace=wrap;html=1;align=center;" parent="1" vertex="1">
          <mxGeometry x="280" y="90" width="80" height="40" as="geometry" />
        </mxCell>
        <mxCell id="ctChK_Ej9cGx2efFHP4d-53" value="" style="endArrow=none;html=1;rounded=0;entryX=0.5;entryY=1;entryDx=0;entryDy=0;exitX=0.75;exitY=0;exitDx=0;exitDy=0;" parent="1" source="ctChK_Ej9cGx2efFHP4d-24" target="ctChK_Ej9cGx2efFHP4d-52" edge="1">
          <mxGeometry relative="1" as="geometry">
            <mxPoint x="190" y="180" as="sourcePoint" />
            <mxPoint x="350" y="180" as="targetPoint" />
          </mxGeometry>
        </mxCell>
        <mxCell id="ctChK_Ej9cGx2efFHP4d-54" value="" style="endArrow=none;html=1;rounded=0;entryX=0.5;entryY=1;entryDx=0;entryDy=0;exitX=0.5;exitY=0;exitDx=0;exitDy=0;" parent="1" source="ctChK_Ej9cGx2efFHP4d-52" edge="1">
          <mxGeometry relative="1" as="geometry">
            <mxPoint x="190" y="180" as="sourcePoint" />
            <mxPoint x="281.0499999999997" y="-110" as="targetPoint" />
          </mxGeometry>
        </mxCell>
        <mxCell id="ctChK_Ej9cGx2efFHP4d-55" value="&lt;font style=&quot;font-size: 11px;&quot;&gt;can take&lt;/font&gt;" style="shape=rhombus;double=1;perimeter=rhombusPerimeter;whiteSpace=wrap;html=1;align=center;" parent="1" vertex="1">
          <mxGeometry x="540" y="151.5" width="80" height="40" as="geometry" />
        </mxCell>
        <mxCell id="ctChK_Ej9cGx2efFHP4d-56" value="" style="endArrow=none;html=1;rounded=0;exitX=1;exitY=0.25;exitDx=0;exitDy=0;entryX=0;entryY=0.5;entryDx=0;entryDy=0;" parent="1" source="ctChK_Ej9cGx2efFHP4d-24" target="ctChK_Ej9cGx2efFHP4d-55" edge="1">
          <mxGeometry relative="1" as="geometry">
            <mxPoint x="500" y="240" as="sourcePoint" />
            <mxPoint x="660" y="240" as="targetPoint" />
          </mxGeometry>
        </mxCell>
        <mxCell id="ctChK_Ej9cGx2efFHP4d-58" value="&lt;font style=&quot;font-size: 11px;&quot;&gt;can have&lt;/font&gt;" style="shape=rhombus;double=1;perimeter=rhombusPerimeter;whiteSpace=wrap;html=1;align=center;" parent="1" vertex="1">
          <mxGeometry x="354.2" y="261.5" width="80" height="40" as="geometry" />
        </mxCell>
        <mxCell id="ctChK_Ej9cGx2efFHP4d-60" value="" style="endArrow=none;html=1;rounded=0;entryX=1;entryY=0.75;entryDx=0;entryDy=0;exitX=0;exitY=0.5;exitDx=0;exitDy=0;" parent="1" source="ctChK_Ej9cGx2efFHP4d-58" target="ctChK_Ej9cGx2efFHP4d-24" edge="1">
          <mxGeometry relative="1" as="geometry">
            <mxPoint x="390" y="310" as="sourcePoint" />
            <mxPoint x="550" y="310" as="targetPoint" />
          </mxGeometry>
        </mxCell>
        <mxCell id="ctChK_Ej9cGx2efFHP4d-61" value="" style="endArrow=none;html=1;rounded=0;entryX=0;entryY=0.5;entryDx=0;entryDy=0;exitX=1;exitY=0.5;exitDx=0;exitDy=0;" parent="1" source="ctChK_Ej9cGx2efFHP4d-58" target="ctChK_Ej9cGx2efFHP4d-63" edge="1">
          <mxGeometry relative="1" as="geometry">
            <mxPoint x="390" y="310" as="sourcePoint" />
            <mxPoint x="444.20000000000005" y="321.5" as="targetPoint" />
          </mxGeometry>
        </mxCell>
        <mxCell id="ctChK_Ej9cGx2efFHP4d-63" value="Preffered genres" style="shape=ext;margin=3;double=1;whiteSpace=wrap;html=1;align=center;" parent="1" vertex="1">
          <mxGeometry x="495.8" y="250" width="124.2" height="60" as="geometry" />
        </mxCell>
        <mxCell id="ctChK_Ej9cGx2efFHP4d-64" value="" style="endArrow=none;html=1;rounded=0;entryX=0;entryY=0;entryDx=0;entryDy=0;exitX=1;exitY=0.5;exitDx=0;exitDy=0;" parent="1" source="ctChK_Ej9cGx2efFHP4d-63" target="ctChK_Ej9cGx2efFHP4d-90" edge="1">
          <mxGeometry relative="1" as="geometry">
            <mxPoint x="390" y="190" as="sourcePoint" />
            <mxPoint x="650" y="300" as="targetPoint" />
          </mxGeometry>
        </mxCell>
        <mxCell id="ctChK_Ej9cGx2efFHP4d-68" value="&lt;font style=&quot;font-size: 11px;&quot;&gt;can have&lt;/font&gt;" style="shape=rhombus;double=1;perimeter=rhombusPerimeter;whiteSpace=wrap;html=1;align=center;" parent="1" vertex="1">
          <mxGeometry x="250" y="370" width="80" height="40" as="geometry" />
        </mxCell>
        <mxCell id="ctChK_Ej9cGx2efFHP4d-69" value="" style="endArrow=none;html=1;rounded=0;entryX=0.75;entryY=1;entryDx=0;entryDy=0;exitX=0.5;exitY=0;exitDx=0;exitDy=0;" parent="1" source="ctChK_Ej9cGx2efFHP4d-68" target="ctChK_Ej9cGx2efFHP4d-24" edge="1">
          <mxGeometry relative="1" as="geometry">
            <mxPoint x="290" y="410" as="sourcePoint" />
            <mxPoint x="450" y="410" as="targetPoint" />
          </mxGeometry>
        </mxCell>
        <mxCell id="ctChK_Ej9cGx2efFHP4d-70" value="" style="endArrow=none;html=1;rounded=0;entryX=0.5;entryY=0;entryDx=0;entryDy=0;exitX=0.5;exitY=1;exitDx=0;exitDy=0;" parent="1" source="ctChK_Ej9cGx2efFHP4d-68" target="ctChK_Ej9cGx2efFHP4d-71" edge="1">
          <mxGeometry relative="1" as="geometry">
            <mxPoint x="290" y="410" as="sourcePoint" />
            <mxPoint x="384.20000000000005" y="520" as="targetPoint" />
          </mxGeometry>
        </mxCell>
        <mxCell id="ctChK_Ej9cGx2efFHP4d-71" value="Diary" style="shape=ext;margin=3;double=1;whiteSpace=wrap;html=1;align=center;" parent="1" vertex="1">
          <mxGeometry x="340" y="520" width="124.2" height="60" as="geometry" />
        </mxCell>
        <mxCell id="ctChK_Ej9cGx2efFHP4d-72" value="keywords" style="ellipse;whiteSpace=wrap;html=1;align=center;" parent="1" vertex="1">
          <mxGeometry x="434.2" y="680" width="100" height="40" as="geometry" />
        </mxCell>
        <mxCell id="ctChK_Ej9cGx2efFHP4d-73" value="date_enrtry" style="ellipse;whiteSpace=wrap;html=1;align=center;" parent="1" vertex="1">
          <mxGeometry x="590" y="600" width="100" height="40" as="geometry" />
        </mxCell>
        <mxCell id="ctChK_Ej9cGx2efFHP4d-74" value="custom_category_name" style="ellipse;whiteSpace=wrap;html=1;align=center;" parent="1" vertex="1">
          <mxGeometry x="210" y="770" width="100" height="40" as="geometry" />
        </mxCell>
        <mxCell id="ctChK_Ej9cGx2efFHP4d-75" value="Song" style="ellipse;whiteSpace=wrap;html=1;align=center;" parent="1" vertex="1">
          <mxGeometry x="590" y="540" width="100" height="40" as="geometry" />
        </mxCell>
        <mxCell id="ctChK_Ej9cGx2efFHP4d-76" value="is_private" style="ellipse;whiteSpace=wrap;html=1;align=center;" parent="1" vertex="1">
          <mxGeometry x="540" y="660" width="100" height="40" as="geometry" />
        </mxCell>
        <mxCell id="ctChK_Ej9cGx2efFHP4d-78" value="Title" style="ellipse;whiteSpace=wrap;html=1;align=center;" parent="1" vertex="1">
          <mxGeometry x="80" y="770" width="100" height="40" as="geometry" />
        </mxCell>
        <mxCell id="ctChK_Ej9cGx2efFHP4d-80" value="" style="endArrow=none;html=1;rounded=0;entryX=0;entryY=0.5;entryDx=0;entryDy=0;exitX=1;exitY=0.5;exitDx=0;exitDy=0;" parent="1" source="ctChK_Ej9cGx2efFHP4d-71" target="ctChK_Ej9cGx2efFHP4d-75" edge="1">
          <mxGeometry relative="1" as="geometry">
            <mxPoint x="390" y="540" as="sourcePoint" />
            <mxPoint x="550" y="540" as="targetPoint" />
          </mxGeometry>
        </mxCell>
        <mxCell id="ctChK_Ej9cGx2efFHP4d-81" value="" style="endArrow=none;html=1;rounded=0;entryX=0;entryY=0;entryDx=0;entryDy=0;exitX=1;exitY=1;exitDx=0;exitDy=0;" parent="1" source="ctChK_Ej9cGx2efFHP4d-71" target="ctChK_Ej9cGx2efFHP4d-73" edge="1">
          <mxGeometry relative="1" as="geometry">
            <mxPoint x="390" y="540" as="sourcePoint" />
            <mxPoint x="550" y="540" as="targetPoint" />
          </mxGeometry>
        </mxCell>
        <mxCell id="ctChK_Ej9cGx2efFHP4d-82" value="" style="endArrow=none;html=1;rounded=0;entryX=0.5;entryY=0;entryDx=0;entryDy=0;exitX=0.75;exitY=1;exitDx=0;exitDy=0;" parent="1" source="ctChK_Ej9cGx2efFHP4d-71" target="ctChK_Ej9cGx2efFHP4d-76" edge="1">
          <mxGeometry relative="1" as="geometry">
            <mxPoint x="390" y="540" as="sourcePoint" />
            <mxPoint x="550" y="540" as="targetPoint" />
          </mxGeometry>
        </mxCell>
        <mxCell id="ctChK_Ej9cGx2efFHP4d-83" value="" style="endArrow=none;html=1;rounded=0;entryX=0.5;entryY=0;entryDx=0;entryDy=0;" parent="1" target="ctChK_Ej9cGx2efFHP4d-72" edge="1">
          <mxGeometry relative="1" as="geometry">
            <mxPoint x="402" y="580" as="sourcePoint" />
            <mxPoint x="550" y="540" as="targetPoint" />
          </mxGeometry>
        </mxCell>
        <mxCell id="ctChK_Ej9cGx2efFHP4d-84" value="" style="endArrow=none;html=1;rounded=0;entryX=0.5;entryY=0;entryDx=0;entryDy=0;exitX=0.5;exitY=1;exitDx=0;exitDy=0;" parent="1" source="ctChK_Ej9cGx2efFHP4d-87" target="ctChK_Ej9cGx2efFHP4d-74" edge="1">
          <mxGeometry relative="1" as="geometry">
            <mxPoint x="390" y="540" as="sourcePoint" />
            <mxPoint x="550" y="540" as="targetPoint" />
          </mxGeometry>
        </mxCell>
        <mxCell id="ctChK_Ej9cGx2efFHP4d-86" value="" style="endArrow=none;html=1;rounded=0;entryX=0.5;entryY=0;entryDx=0;entryDy=0;exitX=0.25;exitY=1;exitDx=0;exitDy=0;" parent="1" source="ctChK_Ej9cGx2efFHP4d-87" target="ctChK_Ej9cGx2efFHP4d-78" edge="1">
          <mxGeometry relative="1" as="geometry">
            <mxPoint x="390" y="540" as="sourcePoint" />
            <mxPoint x="240" y="600" as="targetPoint" />
          </mxGeometry>
        </mxCell>
        <mxCell id="ctChK_Ej9cGx2efFHP4d-87" value="Category" style="shape=ext;margin=3;double=1;whiteSpace=wrap;html=1;align=center;" parent="1" vertex="1">
          <mxGeometry x="155" y="680" width="110" height="50" as="geometry" />
        </mxCell>
        <mxCell id="ctChK_Ej9cGx2efFHP4d-88" value="" style="endArrow=none;html=1;rounded=0;entryX=0;entryY=0.5;entryDx=0;entryDy=0;exitX=1;exitY=0;exitDx=0;exitDy=0;" parent="1" source="ctChK_Ej9cGx2efFHP4d-87" target="xtGOXwqC0LwWasPT-HDw-9" edge="1">
          <mxGeometry relative="1" as="geometry">
            <mxPoint x="390" y="540" as="sourcePoint" />
            <mxPoint x="550" y="540" as="targetPoint" />
          </mxGeometry>
        </mxCell>
        <mxCell id="ctChK_Ej9cGx2efFHP4d-90" value="genres" style="ellipse;shape=doubleEllipse;margin=3;whiteSpace=wrap;html=1;align=center;" parent="1" vertex="1">
          <mxGeometry x="640" y="301.5" width="80" height="28.5" as="geometry" />
        </mxCell>
        <mxCell id="ctChK_Ej9cGx2efFHP4d-91" value="Input data" style="shape=ext;margin=3;double=1;whiteSpace=wrap;html=1;align=center;" parent="1" vertex="1">
          <mxGeometry x="1007.96" y="130" width="124.2" height="60" as="geometry" />
        </mxCell>
        <mxCell id="ctChK_Ej9cGx2efFHP4d-92" value="Name" style="ellipse;whiteSpace=wrap;html=1;align=center;" parent="1" vertex="1">
          <mxGeometry x="1180" y="80" width="100" height="40" as="geometry" />
        </mxCell>
        <mxCell id="ctChK_Ej9cGx2efFHP4d-93" value="minutes_of_birth" style="ellipse;whiteSpace=wrap;html=1;align=center;" parent="1" vertex="1">
          <mxGeometry x="900" y="-10" width="100" height="40" as="geometry" />
        </mxCell>
        <mxCell id="ctChK_Ej9cGx2efFHP4d-94" value="hour_of_birth" style="ellipse;whiteSpace=wrap;html=1;align=center;" parent="1" vertex="1">
          <mxGeometry x="1017.96" y="-10" width="100" height="40" as="geometry" />
        </mxCell>
        <mxCell id="ctChK_Ej9cGx2efFHP4d-95" value="date_of_birth" style="ellipse;whiteSpace=wrap;html=1;align=center;" parent="1" vertex="1">
          <mxGeometry x="1120" y="20" width="100" height="40" as="geometry" />
        </mxCell>
        <mxCell id="ctChK_Ej9cGx2efFHP4d-96" value="country" style="ellipse;whiteSpace=wrap;html=1;align=center;" parent="1" vertex="1">
          <mxGeometry x="780" y="90" width="100" height="40" as="geometry" />
        </mxCell>
        <mxCell id="ctChK_Ej9cGx2efFHP4d-97" value="city" style="ellipse;whiteSpace=wrap;html=1;align=center;" parent="1" vertex="1">
          <mxGeometry x="800" y="30" width="100" height="40" as="geometry" />
        </mxCell>
        <mxCell id="ctChK_Ej9cGx2efFHP4d-103" value="" style="endArrow=none;html=1;rounded=0;entryX=0;entryY=0.5;entryDx=0;entryDy=0;exitX=1;exitY=0;exitDx=0;exitDy=0;" parent="1" source="ctChK_Ej9cGx2efFHP4d-91" target="ctChK_Ej9cGx2efFHP4d-92" edge="1">
          <mxGeometry relative="1" as="geometry">
            <mxPoint x="950" y="-60" as="sourcePoint" />
            <mxPoint x="1110" y="-60" as="targetPoint" />
          </mxGeometry>
        </mxCell>
        <mxCell id="ctChK_Ej9cGx2efFHP4d-107" value="" style="endArrow=none;html=1;rounded=0;entryX=1;entryY=0.5;entryDx=0;entryDy=0;exitX=0;exitY=0.25;exitDx=0;exitDy=0;" parent="1" source="ctChK_Ej9cGx2efFHP4d-91" target="ctChK_Ej9cGx2efFHP4d-96" edge="1">
          <mxGeometry relative="1" as="geometry">
            <mxPoint x="920" y="50" as="sourcePoint" />
            <mxPoint x="1080" y="50" as="targetPoint" />
          </mxGeometry>
        </mxCell>
        <mxCell id="ctChK_Ej9cGx2efFHP4d-108" value="" style="endArrow=none;html=1;rounded=0;entryX=1;entryY=0.5;entryDx=0;entryDy=0;exitX=0;exitY=0;exitDx=0;exitDy=0;" parent="1" source="ctChK_Ej9cGx2efFHP4d-91" target="ctChK_Ej9cGx2efFHP4d-97" edge="1">
          <mxGeometry relative="1" as="geometry">
            <mxPoint x="920" y="50" as="sourcePoint" />
            <mxPoint x="1080" y="50" as="targetPoint" />
          </mxGeometry>
        </mxCell>
        <mxCell id="ctChK_Ej9cGx2efFHP4d-109" value="" style="endArrow=none;html=1;rounded=0;entryX=1;entryY=1;entryDx=0;entryDy=0;exitX=0.25;exitY=0;exitDx=0;exitDy=0;" parent="1" source="ctChK_Ej9cGx2efFHP4d-91" target="ctChK_Ej9cGx2efFHP4d-93" edge="1">
          <mxGeometry relative="1" as="geometry">
            <mxPoint x="920" y="50" as="sourcePoint" />
            <mxPoint x="1080" y="50" as="targetPoint" />
          </mxGeometry>
        </mxCell>
        <mxCell id="ctChK_Ej9cGx2efFHP4d-110" value="" style="endArrow=none;html=1;rounded=0;entryX=0.5;entryY=1;entryDx=0;entryDy=0;exitX=0.5;exitY=0;exitDx=0;exitDy=0;" parent="1" source="ctChK_Ej9cGx2efFHP4d-91" target="ctChK_Ej9cGx2efFHP4d-94" edge="1">
          <mxGeometry relative="1" as="geometry">
            <mxPoint x="920" y="50" as="sourcePoint" />
            <mxPoint x="1080" y="50" as="targetPoint" />
          </mxGeometry>
        </mxCell>
        <mxCell id="ctChK_Ej9cGx2efFHP4d-111" value="" style="endArrow=none;html=1;rounded=0;entryX=0;entryY=1;entryDx=0;entryDy=0;exitX=0.75;exitY=0;exitDx=0;exitDy=0;" parent="1" source="ctChK_Ej9cGx2efFHP4d-91" target="ctChK_Ej9cGx2efFHP4d-95" edge="1">
          <mxGeometry relative="1" as="geometry">
            <mxPoint x="920" y="50" as="sourcePoint" />
            <mxPoint x="1080" y="50" as="targetPoint" />
          </mxGeometry>
        </mxCell>
        <mxCell id="ctChK_Ej9cGx2efFHP4d-113" value="Planets" style="shape=ext;margin=3;double=1;whiteSpace=wrap;html=1;align=center;" parent="1" vertex="1">
          <mxGeometry x="1250" y="220" width="124.2" height="60" as="geometry" />
        </mxCell>
        <mxCell id="ctChK_Ej9cGx2efFHP4d-115" value="Chiron" style="ellipse;whiteSpace=wrap;html=1;align=center;dashed=1;" parent="1" vertex="1">
          <mxGeometry x="1480" y="635" width="100" height="40" as="geometry" />
        </mxCell>
        <mxCell id="ctChK_Ej9cGx2efFHP4d-116" value="True Node" style="ellipse;whiteSpace=wrap;html=1;align=center;dashed=1;" parent="1" vertex="1">
          <mxGeometry x="1480" y="580" width="100" height="40" as="geometry" />
        </mxCell>
        <mxCell id="ctChK_Ej9cGx2efFHP4d-117" value="Sun" style="ellipse;whiteSpace=wrap;html=1;align=center;dashed=1;" parent="1" vertex="1">
          <mxGeometry x="1480" y="80" width="100" height="40" as="geometry" />
        </mxCell>
        <mxCell id="ctChK_Ej9cGx2efFHP4d-118" value="Moon" style="ellipse;whiteSpace=wrap;html=1;align=center;dashed=1;" parent="1" vertex="1">
          <mxGeometry x="1480" y="130" width="100" height="40" as="geometry" />
        </mxCell>
        <mxCell id="ctChK_Ej9cGx2efFHP4d-119" value="Mercury" style="ellipse;whiteSpace=wrap;html=1;align=center;dashed=1;" parent="1" vertex="1">
          <mxGeometry x="1480" y="180" width="100" height="40" as="geometry" />
        </mxCell>
        <mxCell id="ctChK_Ej9cGx2efFHP4d-120" value="Venus" style="ellipse;whiteSpace=wrap;html=1;align=center;dashed=1;" parent="1" vertex="1">
          <mxGeometry x="1480" y="230" width="100" height="40" as="geometry" />
        </mxCell>
        <mxCell id="ctChK_Ej9cGx2efFHP4d-121" value="Mars" style="ellipse;whiteSpace=wrap;html=1;align=center;dashed=1;" parent="1" vertex="1">
          <mxGeometry x="1480" y="280" width="100" height="40" as="geometry" />
        </mxCell>
        <mxCell id="ctChK_Ej9cGx2efFHP4d-122" value="Jupiter" style="ellipse;whiteSpace=wrap;html=1;align=center;dashed=1;" parent="1" vertex="1">
          <mxGeometry x="1480" y="330" width="100" height="40" as="geometry" />
        </mxCell>
        <mxCell id="ctChK_Ej9cGx2efFHP4d-123" value="Saturn" style="ellipse;whiteSpace=wrap;html=1;align=center;dashed=1;" parent="1" vertex="1">
          <mxGeometry x="1480" y="380" width="100" height="40" as="geometry" />
        </mxCell>
        <mxCell id="ctChK_Ej9cGx2efFHP4d-124" value="Uranus" style="ellipse;whiteSpace=wrap;html=1;align=center;dashed=1;" parent="1" vertex="1">
          <mxGeometry x="1480" y="430" width="100" height="40" as="geometry" />
        </mxCell>
        <mxCell id="ctChK_Ej9cGx2efFHP4d-125" value="Neptune" style="ellipse;whiteSpace=wrap;html=1;align=center;dashed=1;" parent="1" vertex="1">
          <mxGeometry x="1480" y="480" width="100" height="40" as="geometry" />
        </mxCell>
        <mxCell id="ctChK_Ej9cGx2efFHP4d-126" value="Pluto" style="ellipse;whiteSpace=wrap;html=1;align=center;dashed=1;" parent="1" vertex="1">
          <mxGeometry x="1480" y="530" width="100" height="40" as="geometry" />
        </mxCell>
        <mxCell id="ctChK_Ej9cGx2efFHP4d-129" value="&lt;span style=&quot;font-size: 17px;&quot;&gt;Natal Chart&lt;/span&gt;" style="rounded=0;whiteSpace=wrap;html=1;" parent="1" vertex="1">
          <mxGeometry x="997.96" y="251.5" width="120" height="60" as="geometry" />
        </mxCell>
        <mxCell id="ctChK_Ej9cGx2efFHP4d-130" value="" style="endArrow=none;html=1;rounded=0;entryX=0;entryY=0.5;entryDx=0;entryDy=0;exitX=1;exitY=1;exitDx=0;exitDy=0;" parent="1" source="ctChK_Ej9cGx2efFHP4d-113" target="ctChK_Ej9cGx2efFHP4d-125" edge="1">
          <mxGeometry relative="1" as="geometry">
            <mxPoint x="1240" y="421.28" as="sourcePoint" />
            <mxPoint x="1400" y="421.28" as="targetPoint" />
          </mxGeometry>
        </mxCell>
        <mxCell id="ctChK_Ej9cGx2efFHP4d-131" value="" style="endArrow=none;html=1;rounded=0;entryX=0;entryY=0.5;entryDx=0;entryDy=0;exitX=1;exitY=1;exitDx=0;exitDy=0;" parent="1" source="ctChK_Ej9cGx2efFHP4d-113" target="ctChK_Ej9cGx2efFHP4d-115" edge="1">
          <mxGeometry relative="1" as="geometry">
            <mxPoint x="1210" y="366.5" as="sourcePoint" />
            <mxPoint x="1370" y="366.5" as="targetPoint" />
          </mxGeometry>
        </mxCell>
        <mxCell id="ctChK_Ej9cGx2efFHP4d-132" value="" style="endArrow=none;html=1;rounded=0;entryX=0;entryY=0.5;entryDx=0;entryDy=0;exitX=1;exitY=0.5;exitDx=0;exitDy=0;" parent="1" source="ctChK_Ej9cGx2efFHP4d-113" target="ctChK_Ej9cGx2efFHP4d-123" edge="1">
          <mxGeometry relative="1" as="geometry">
            <mxPoint x="1310" y="410" as="sourcePoint" />
            <mxPoint x="1470" y="410" as="targetPoint" />
          </mxGeometry>
        </mxCell>
        <mxCell id="ctChK_Ej9cGx2efFHP4d-133" value="" style="endArrow=none;html=1;rounded=0;entryX=0;entryY=0.5;entryDx=0;entryDy=0;exitX=1;exitY=0.5;exitDx=0;exitDy=0;" parent="1" source="ctChK_Ej9cGx2efFHP4d-113" target="ctChK_Ej9cGx2efFHP4d-124" edge="1">
          <mxGeometry relative="1" as="geometry">
            <mxPoint x="1280" y="386.28" as="sourcePoint" />
            <mxPoint x="1440" y="386.28" as="targetPoint" />
          </mxGeometry>
        </mxCell>
        <mxCell id="ctChK_Ej9cGx2efFHP4d-134" value="" style="endArrow=none;html=1;rounded=0;entryX=0;entryY=0.5;entryDx=0;entryDy=0;exitX=1;exitY=1;exitDx=0;exitDy=0;" parent="1" source="ctChK_Ej9cGx2efFHP4d-113" target="ctChK_Ej9cGx2efFHP4d-116" edge="1">
          <mxGeometry relative="1" as="geometry">
            <mxPoint x="1265" y="380" as="sourcePoint" />
            <mxPoint x="1425" y="380" as="targetPoint" />
          </mxGeometry>
        </mxCell>
        <mxCell id="ctChK_Ej9cGx2efFHP4d-135" value="" style="endArrow=none;html=1;rounded=0;entryX=0;entryY=0.5;entryDx=0;entryDy=0;exitX=1;exitY=1;exitDx=0;exitDy=0;" parent="1" source="ctChK_Ej9cGx2efFHP4d-113" target="ctChK_Ej9cGx2efFHP4d-126" edge="1">
          <mxGeometry relative="1" as="geometry">
            <mxPoint x="1230" y="401.5" as="sourcePoint" />
            <mxPoint x="1390" y="401.5" as="targetPoint" />
          </mxGeometry>
        </mxCell>
        <mxCell id="ctChK_Ej9cGx2efFHP4d-136" value="" style="endArrow=none;html=1;rounded=0;exitX=1;exitY=0.5;exitDx=0;exitDy=0;entryX=0;entryY=0.5;entryDx=0;entryDy=0;" parent="1" source="ctChK_Ej9cGx2efFHP4d-113" target="ctChK_Ej9cGx2efFHP4d-122" edge="1">
          <mxGeometry relative="1" as="geometry">
            <mxPoint x="1390" y="390" as="sourcePoint" />
            <mxPoint x="1490" y="380" as="targetPoint" />
          </mxGeometry>
        </mxCell>
        <mxCell id="ctChK_Ej9cGx2efFHP4d-137" value="" style="endArrow=none;html=1;rounded=0;entryX=0;entryY=0.5;entryDx=0;entryDy=0;exitX=1;exitY=0.25;exitDx=0;exitDy=0;" parent="1" source="ctChK_Ej9cGx2efFHP4d-113" target="ctChK_Ej9cGx2efFHP4d-121" edge="1">
          <mxGeometry relative="1" as="geometry">
            <mxPoint x="1390" y="390" as="sourcePoint" />
            <mxPoint x="1550" y="390" as="targetPoint" />
          </mxGeometry>
        </mxCell>
        <mxCell id="ctChK_Ej9cGx2efFHP4d-138" value="" style="endArrow=none;html=1;rounded=0;entryX=0;entryY=0.5;entryDx=0;entryDy=0;exitX=1;exitY=0.25;exitDx=0;exitDy=0;" parent="1" source="ctChK_Ej9cGx2efFHP4d-113" target="ctChK_Ej9cGx2efFHP4d-120" edge="1">
          <mxGeometry relative="1" as="geometry">
            <mxPoint x="1390" y="390" as="sourcePoint" />
            <mxPoint x="1550" y="390" as="targetPoint" />
          </mxGeometry>
        </mxCell>
        <mxCell id="ctChK_Ej9cGx2efFHP4d-139" value="" style="endArrow=none;html=1;rounded=0;entryX=0;entryY=0.5;entryDx=0;entryDy=0;exitX=1;exitY=0.25;exitDx=0;exitDy=0;" parent="1" source="ctChK_Ej9cGx2efFHP4d-113" target="ctChK_Ej9cGx2efFHP4d-119" edge="1">
          <mxGeometry relative="1" as="geometry">
            <mxPoint x="1390" y="390" as="sourcePoint" />
            <mxPoint x="1550" y="390" as="targetPoint" />
          </mxGeometry>
        </mxCell>
        <mxCell id="ctChK_Ej9cGx2efFHP4d-140" value="" style="endArrow=none;html=1;rounded=0;entryX=0;entryY=0.5;entryDx=0;entryDy=0;exitX=1;exitY=0.25;exitDx=0;exitDy=0;" parent="1" source="ctChK_Ej9cGx2efFHP4d-113" target="ctChK_Ej9cGx2efFHP4d-118" edge="1">
          <mxGeometry relative="1" as="geometry">
            <mxPoint x="1390" y="390" as="sourcePoint" />
            <mxPoint x="1550" y="390" as="targetPoint" />
          </mxGeometry>
        </mxCell>
        <mxCell id="ctChK_Ej9cGx2efFHP4d-142" value="" style="endArrow=none;html=1;rounded=0;exitX=1;exitY=0.5;exitDx=0;exitDy=0;entryX=0;entryY=0.5;entryDx=0;entryDy=0;" parent="1" source="ctChK_Ej9cGx2efFHP4d-129" target="ctChK_Ej9cGx2efFHP4d-113" edge="1">
          <mxGeometry relative="1" as="geometry">
            <mxPoint x="1320" y="370" as="sourcePoint" />
            <mxPoint x="1480" y="370" as="targetPoint" />
          </mxGeometry>
        </mxCell>
        <mxCell id="ctChK_Ej9cGx2efFHP4d-143" value="" style="endArrow=none;html=1;rounded=0;exitX=0.5;exitY=1;exitDx=0;exitDy=0;entryX=0.5;entryY=0;entryDx=0;entryDy=0;" parent="1" source="ctChK_Ej9cGx2efFHP4d-91" target="ctChK_Ej9cGx2efFHP4d-129" edge="1">
          <mxGeometry relative="1" as="geometry">
            <mxPoint x="1150" y="280" as="sourcePoint" />
            <mxPoint x="1310" y="280" as="targetPoint" />
          </mxGeometry>
        </mxCell>
        <mxCell id="ctChK_Ej9cGx2efFHP4d-144" value="Houses" style="shape=ext;margin=3;double=1;whiteSpace=wrap;html=1;align=center;" parent="1" vertex="1">
          <mxGeometry x="970" y="630" width="124.2" height="60" as="geometry" />
        </mxCell>
        <mxCell id="ctChK_Ej9cGx2efFHP4d-145" value="3rd house" style="ellipse;whiteSpace=wrap;html=1;align=center;dashed=1;" parent="1" vertex="1">
          <mxGeometry x="1210" y="610" width="100" height="40" as="geometry" />
        </mxCell>
        <mxCell id="ctChK_Ej9cGx2efFHP4d-146" value="4rd house" style="ellipse;whiteSpace=wrap;html=1;align=center;dashed=1;" parent="1" vertex="1">
          <mxGeometry x="1210" y="660" width="100" height="40" as="geometry" />
        </mxCell>
        <mxCell id="ctChK_Ej9cGx2efFHP4d-147" value="5th house" style="ellipse;whiteSpace=wrap;html=1;align=center;dashed=1;" parent="1" vertex="1">
          <mxGeometry x="1210" y="710" width="100" height="40" as="geometry" />
        </mxCell>
        <mxCell id="ctChK_Ej9cGx2efFHP4d-148" value="6th house" style="ellipse;whiteSpace=wrap;html=1;align=center;dashed=1;" parent="1" vertex="1">
          <mxGeometry x="1210" y="760" width="100" height="40" as="geometry" />
        </mxCell>
        <mxCell id="ctChK_Ej9cGx2efFHP4d-149" value="8th house" style="ellipse;whiteSpace=wrap;html=1;align=center;dashed=1;" parent="1" vertex="1">
          <mxGeometry x="1210" y="860" width="100" height="40" as="geometry" />
        </mxCell>
        <mxCell id="ctChK_Ej9cGx2efFHP4d-150" value="9th house" style="ellipse;whiteSpace=wrap;html=1;align=center;dashed=1;" parent="1" vertex="1">
          <mxGeometry x="1210" y="910" width="100" height="40" as="geometry" />
        </mxCell>
        <mxCell id="ctChK_Ej9cGx2efFHP4d-151" value="MC" style="ellipse;whiteSpace=wrap;html=1;align=center;dashed=1;" parent="1" vertex="1">
          <mxGeometry x="1210" y="960" width="100" height="40" as="geometry" />
        </mxCell>
        <mxCell id="ctChK_Ej9cGx2efFHP4d-152" value="2nd house" style="ellipse;whiteSpace=wrap;html=1;align=center;dashed=1;" parent="1" vertex="1">
          <mxGeometry x="1210" y="560" width="100" height="40" as="geometry" />
        </mxCell>
        <mxCell id="ctChK_Ej9cGx2efFHP4d-153" value="11th house" style="ellipse;whiteSpace=wrap;html=1;align=center;dashed=1;" parent="1" vertex="1">
          <mxGeometry x="1210" y="1010" width="100" height="40" as="geometry" />
        </mxCell>
        <mxCell id="ctChK_Ej9cGx2efFHP4d-154" value="AC" style="ellipse;whiteSpace=wrap;html=1;align=center;dashed=1;" parent="1" vertex="1">
          <mxGeometry x="1210" y="510" width="100" height="40" as="geometry" />
        </mxCell>
        <mxCell id="ctChK_Ej9cGx2efFHP4d-155" value="12th house" style="ellipse;whiteSpace=wrap;html=1;align=center;dashed=1;" parent="1" vertex="1">
          <mxGeometry x="1210" y="1060" width="100" height="40" as="geometry" />
        </mxCell>
        <mxCell id="ctChK_Ej9cGx2efFHP4d-156" value="7th house" style="ellipse;whiteSpace=wrap;html=1;align=center;dashed=1;" parent="1" vertex="1">
          <mxGeometry x="1210" y="810" width="100" height="40" as="geometry" />
        </mxCell>
        <mxCell id="ctChK_Ej9cGx2efFHP4d-157" value="" style="endArrow=none;html=1;rounded=0;entryX=0;entryY=0.5;entryDx=0;entryDy=0;exitX=0.75;exitY=1;exitDx=0;exitDy=0;" parent="1" source="ctChK_Ej9cGx2efFHP4d-144" target="ctChK_Ej9cGx2efFHP4d-151" edge="1">
          <mxGeometry relative="1" as="geometry">
            <mxPoint x="1080" y="770" as="sourcePoint" />
            <mxPoint x="1240" y="770" as="targetPoint" />
          </mxGeometry>
        </mxCell>
        <mxCell id="ctChK_Ej9cGx2efFHP4d-158" value="" style="endArrow=none;html=1;rounded=0;entryX=0;entryY=0.5;entryDx=0;entryDy=0;exitX=1;exitY=1;exitDx=0;exitDy=0;" parent="1" source="ctChK_Ej9cGx2efFHP4d-144" target="ctChK_Ej9cGx2efFHP4d-150" edge="1">
          <mxGeometry relative="1" as="geometry">
            <mxPoint x="1080" y="770" as="sourcePoint" />
            <mxPoint x="1240" y="770" as="targetPoint" />
          </mxGeometry>
        </mxCell>
        <mxCell id="ctChK_Ej9cGx2efFHP4d-159" value="" style="endArrow=none;html=1;rounded=0;entryX=0;entryY=0.5;entryDx=0;entryDy=0;exitX=1;exitY=1;exitDx=0;exitDy=0;" parent="1" source="ctChK_Ej9cGx2efFHP4d-144" target="ctChK_Ej9cGx2efFHP4d-149" edge="1">
          <mxGeometry relative="1" as="geometry">
            <mxPoint x="1080" y="770" as="sourcePoint" />
            <mxPoint x="1240" y="770" as="targetPoint" />
          </mxGeometry>
        </mxCell>
        <mxCell id="ctChK_Ej9cGx2efFHP4d-160" value="" style="endArrow=none;html=1;rounded=0;entryX=0;entryY=0.5;entryDx=0;entryDy=0;exitX=1;exitY=1;exitDx=0;exitDy=0;" parent="1" source="ctChK_Ej9cGx2efFHP4d-144" target="ctChK_Ej9cGx2efFHP4d-156" edge="1">
          <mxGeometry relative="1" as="geometry">
            <mxPoint x="1080" y="770" as="sourcePoint" />
            <mxPoint x="1240" y="770" as="targetPoint" />
          </mxGeometry>
        </mxCell>
        <mxCell id="ctChK_Ej9cGx2efFHP4d-161" value="" style="endArrow=none;html=1;rounded=0;entryX=0;entryY=0.5;entryDx=0;entryDy=0;exitX=1;exitY=0.75;exitDx=0;exitDy=0;" parent="1" source="ctChK_Ej9cGx2efFHP4d-144" target="ctChK_Ej9cGx2efFHP4d-148" edge="1">
          <mxGeometry relative="1" as="geometry">
            <mxPoint x="1080" y="770" as="sourcePoint" />
            <mxPoint x="1240" y="770" as="targetPoint" />
          </mxGeometry>
        </mxCell>
        <mxCell id="ctChK_Ej9cGx2efFHP4d-162" value="" style="endArrow=none;html=1;rounded=0;exitX=0;exitY=0.5;exitDx=0;exitDy=0;entryX=1;entryY=0.5;entryDx=0;entryDy=0;" parent="1" source="ctChK_Ej9cGx2efFHP4d-147" target="ctChK_Ej9cGx2efFHP4d-144" edge="1">
          <mxGeometry relative="1" as="geometry">
            <mxPoint x="1080" y="770" as="sourcePoint" />
            <mxPoint x="1240" y="770" as="targetPoint" />
          </mxGeometry>
        </mxCell>
        <mxCell id="ctChK_Ej9cGx2efFHP4d-163" value="" style="endArrow=none;html=1;rounded=0;exitX=0;exitY=0.5;exitDx=0;exitDy=0;entryX=1;entryY=0.25;entryDx=0;entryDy=0;" parent="1" source="ctChK_Ej9cGx2efFHP4d-146" target="ctChK_Ej9cGx2efFHP4d-144" edge="1">
          <mxGeometry relative="1" as="geometry">
            <mxPoint x="1080" y="770" as="sourcePoint" />
            <mxPoint x="1240" y="770" as="targetPoint" />
          </mxGeometry>
        </mxCell>
        <mxCell id="ctChK_Ej9cGx2efFHP4d-164" value="" style="endArrow=none;html=1;rounded=0;exitX=0;exitY=0.5;exitDx=0;exitDy=0;entryX=1;entryY=0;entryDx=0;entryDy=0;" parent="1" source="ctChK_Ej9cGx2efFHP4d-145" target="ctChK_Ej9cGx2efFHP4d-144" edge="1">
          <mxGeometry relative="1" as="geometry">
            <mxPoint x="1080" y="770" as="sourcePoint" />
            <mxPoint x="1240" y="770" as="targetPoint" />
          </mxGeometry>
        </mxCell>
        <mxCell id="ctChK_Ej9cGx2efFHP4d-165" value="" style="endArrow=none;html=1;rounded=0;exitX=0;exitY=0.5;exitDx=0;exitDy=0;entryX=1;entryY=0;entryDx=0;entryDy=0;" parent="1" source="ctChK_Ej9cGx2efFHP4d-152" target="ctChK_Ej9cGx2efFHP4d-144" edge="1">
          <mxGeometry relative="1" as="geometry">
            <mxPoint x="1080" y="770" as="sourcePoint" />
            <mxPoint x="1240" y="770" as="targetPoint" />
          </mxGeometry>
        </mxCell>
        <mxCell id="ctChK_Ej9cGx2efFHP4d-166" value="" style="endArrow=none;html=1;rounded=0;entryX=0;entryY=0.5;entryDx=0;entryDy=0;exitX=0.75;exitY=0;exitDx=0;exitDy=0;" parent="1" source="ctChK_Ej9cGx2efFHP4d-144" target="ctChK_Ej9cGx2efFHP4d-154" edge="1">
          <mxGeometry relative="1" as="geometry">
            <mxPoint x="1080" y="770" as="sourcePoint" />
            <mxPoint x="1240" y="770" as="targetPoint" />
          </mxGeometry>
        </mxCell>
        <mxCell id="ctChK_Ej9cGx2efFHP4d-167" value="" style="endArrow=none;html=1;rounded=0;entryX=0;entryY=0.5;entryDx=0;entryDy=0;exitX=0.75;exitY=1;exitDx=0;exitDy=0;" parent="1" source="ctChK_Ej9cGx2efFHP4d-144" target="ctChK_Ej9cGx2efFHP4d-153" edge="1">
          <mxGeometry relative="1" as="geometry">
            <mxPoint x="1080" y="890" as="sourcePoint" />
            <mxPoint x="1240" y="890" as="targetPoint" />
          </mxGeometry>
        </mxCell>
        <mxCell id="ctChK_Ej9cGx2efFHP4d-168" value="" style="endArrow=none;html=1;rounded=0;entryX=0;entryY=0.5;entryDx=0;entryDy=0;exitX=0.75;exitY=1;exitDx=0;exitDy=0;" parent="1" source="ctChK_Ej9cGx2efFHP4d-144" target="ctChK_Ej9cGx2efFHP4d-155" edge="1">
          <mxGeometry relative="1" as="geometry">
            <mxPoint x="1080" y="890" as="sourcePoint" />
            <mxPoint x="1240" y="890" as="targetPoint" />
          </mxGeometry>
        </mxCell>
        <mxCell id="ctChK_Ej9cGx2efFHP4d-169" value="" style="endArrow=none;html=1;rounded=0;exitX=0.5;exitY=1;exitDx=0;exitDy=0;entryX=0;entryY=0;entryDx=0;entryDy=0;" parent="1" source="ctChK_Ej9cGx2efFHP4d-129" target="ctChK_Ej9cGx2efFHP4d-144" edge="1">
          <mxGeometry relative="1" as="geometry">
            <mxPoint x="1080" y="570" as="sourcePoint" />
            <mxPoint x="1240" y="570" as="targetPoint" />
          </mxGeometry>
        </mxCell>
        <mxCell id="ctChK_Ej9cGx2efFHP4d-170" value="" style="endArrow=none;html=1;rounded=0;entryX=0;entryY=0.5;entryDx=0;entryDy=0;exitX=1;exitY=0.5;exitDx=0;exitDy=0;" parent="1" source="ctChK_Ej9cGx2efFHP4d-55" target="ctChK_Ej9cGx2efFHP4d-129" edge="1">
          <mxGeometry relative="1" as="geometry">
            <mxPoint x="820" y="340" as="sourcePoint" />
            <mxPoint x="980" y="340" as="targetPoint" />
          </mxGeometry>
        </mxCell>
        <mxCell id="xtGOXwqC0LwWasPT-HDw-3" value="1" style="text;html=1;strokeColor=none;fillColor=none;align=center;verticalAlign=middle;whiteSpace=wrap;rounded=0;" parent="1" vertex="1">
          <mxGeometry x="260" y="220" width="60" height="30" as="geometry" />
        </mxCell>
        <mxCell id="xtGOXwqC0LwWasPT-HDw-4" value="1" style="text;html=1;strokeColor=none;fillColor=none;align=center;verticalAlign=middle;whiteSpace=wrap;rounded=0;" parent="1" vertex="1">
          <mxGeometry x="454.2" y="255" width="60" height="30" as="geometry" />
        </mxCell>
        <mxCell id="xtGOXwqC0LwWasPT-HDw-5" value="1" style="text;html=1;strokeColor=none;fillColor=none;align=center;verticalAlign=middle;whiteSpace=wrap;rounded=0;" parent="1" vertex="1">
          <mxGeometry x="240" y="255" width="60" height="30" as="geometry" />
        </mxCell>
        <mxCell id="xtGOXwqC0LwWasPT-HDw-6" value="M" style="text;html=1;strokeColor=none;fillColor=none;align=center;verticalAlign=middle;whiteSpace=wrap;rounded=0;" parent="1" vertex="1">
          <mxGeometry x="380" y="491.5" width="60" height="30" as="geometry" />
        </mxCell>
        <mxCell id="xtGOXwqC0LwWasPT-HDw-7" value="1" style="text;html=1;strokeColor=none;fillColor=none;align=center;verticalAlign=middle;whiteSpace=wrap;rounded=0;" parent="1" vertex="1">
          <mxGeometry x="300" y="560" width="60" height="30" as="geometry" />
        </mxCell>
        <mxCell id="xtGOXwqC0LwWasPT-HDw-8" value="M" style="text;html=1;strokeColor=none;fillColor=none;align=center;verticalAlign=middle;whiteSpace=wrap;rounded=0;" parent="1" vertex="1">
          <mxGeometry x="220" y="650" width="60" height="30" as="geometry" />
        </mxCell>
        <mxCell id="xtGOXwqC0LwWasPT-HDw-9" value="&lt;font style=&quot;font-size: 11px;&quot;&gt;can have&lt;/font&gt;" style="shape=rhombus;double=1;perimeter=rhombusPerimeter;whiteSpace=wrap;html=1;align=center;" parent="1" vertex="1">
          <mxGeometry x="270" y="610" width="80" height="40" as="geometry" />
        </mxCell>
        <mxCell id="xtGOXwqC0LwWasPT-HDw-10" value="" style="endArrow=none;html=1;rounded=0;entryX=0;entryY=1;entryDx=0;entryDy=0;exitX=1;exitY=0.5;exitDx=0;exitDy=0;" parent="1" source="xtGOXwqC0LwWasPT-HDw-9" target="ctChK_Ej9cGx2efFHP4d-71" edge="1">
          <mxGeometry relative="1" as="geometry">
            <mxPoint x="250" y="550" as="sourcePoint" />
            <mxPoint x="410" y="550" as="targetPoint" />
          </mxGeometry>
        </mxCell>
        <mxCell id="xtGOXwqC0LwWasPT-HDw-11" value="1" style="text;html=1;strokeColor=none;fillColor=none;align=center;verticalAlign=middle;whiteSpace=wrap;rounded=0;" parent="1" vertex="1">
          <mxGeometry x="210" y="165" width="60" height="30" as="geometry" />
        </mxCell>
        <mxCell id="xtGOXwqC0LwWasPT-HDw-12" value="M" style="text;html=1;strokeColor=none;fillColor=none;align=center;verticalAlign=middle;whiteSpace=wrap;rounded=0;" parent="1" vertex="1">
          <mxGeometry x="240" y="-110" width="60" height="30" as="geometry" />
        </mxCell>
        <mxCell id="xtGOXwqC0LwWasPT-HDw-13" value="1" style="text;html=1;strokeColor=none;fillColor=none;align=center;verticalAlign=middle;whiteSpace=wrap;rounded=0;" parent="1" vertex="1">
          <mxGeometry x="270" y="180" width="60" height="30" as="geometry" />
        </mxCell>
        <mxCell id="xtGOXwqC0LwWasPT-HDw-14" value="1" style="text;html=1;strokeColor=none;fillColor=none;align=center;verticalAlign=middle;whiteSpace=wrap;rounded=0;" parent="1" vertex="1">
          <mxGeometry x="947.96" y="250" width="60" height="30" as="geometry" />
        </mxCell>
        <mxCell id="pONqlh3g68kiD31-20ed-7" value="1" style="text;html=1;strokeColor=none;fillColor=none;align=center;verticalAlign=middle;whiteSpace=wrap;rounded=0;" parent="1" vertex="1">
          <mxGeometry x="1027.96" y="185" width="60" height="30" as="geometry" />
        </mxCell>
        <mxCell id="pONqlh3g68kiD31-20ed-8" value="1" style="text;html=1;strokeColor=none;fillColor=none;align=center;verticalAlign=middle;whiteSpace=wrap;rounded=0;" parent="1" vertex="1">
          <mxGeometry x="1017.96" y="225" width="60" height="30" as="geometry" />
        </mxCell>
        <mxCell id="pONqlh3g68kiD31-20ed-10" value="1" style="text;html=1;strokeColor=none;fillColor=none;align=center;verticalAlign=middle;whiteSpace=wrap;rounded=0;" parent="1" vertex="1">
          <mxGeometry x="1200" y="225" width="60" height="30" as="geometry" />
        </mxCell>
        <mxCell id="pONqlh3g68kiD31-20ed-11" value="1" style="text;html=1;strokeColor=none;fillColor=none;align=center;verticalAlign=middle;whiteSpace=wrap;rounded=0;" parent="1" vertex="1">
          <mxGeometry x="1100" y="250" width="60" height="30" as="geometry" />
        </mxCell>
        <mxCell id="pONqlh3g68kiD31-20ed-12" value="1" style="text;html=1;strokeColor=none;fillColor=none;align=center;verticalAlign=middle;whiteSpace=wrap;rounded=0;" parent="1" vertex="1">
          <mxGeometry x="1050" y="320" width="60" height="30" as="geometry" />
        </mxCell>
        <mxCell id="pONqlh3g68kiD31-20ed-13" value="1" style="text;html=1;strokeColor=none;fillColor=none;align=center;verticalAlign=middle;whiteSpace=wrap;rounded=0;" parent="1" vertex="1">
          <mxGeometry x="980" y="590" width="60" height="30" as="geometry" />
        </mxCell>
        <mxCell id="pONqlh3g68kiD31-20ed-14" value="" style="endArrow=none;html=1;rounded=0;entryX=0;entryY=1;entryDx=0;entryDy=0;exitX=1;exitY=0.5;exitDx=0;exitDy=0;" parent="1" source="ctChK_Ej9cGx2efFHP4d-16" target="ctChK_Ej9cGx2efFHP4d-24" edge="1">
          <mxGeometry relative="1" as="geometry">
            <mxPoint x="140" y="432" as="sourcePoint" />
            <mxPoint x="170" y="265" as="targetPoint" />
          </mxGeometry>
        </mxCell>
        <mxCell id="pONqlh3g68kiD31-20ed-15" value="" style="endArrow=none;html=1;rounded=0;entryX=0;entryY=1;entryDx=0;entryDy=0;exitX=1;exitY=0.5;exitDx=0;exitDy=0;" parent="1" source="ctChK_Ej9cGx2efFHP4d-23" target="ctChK_Ej9cGx2efFHP4d-24" edge="1">
          <mxGeometry relative="1" as="geometry">
            <mxPoint x="150" y="442" as="sourcePoint" />
            <mxPoint x="180" y="275" as="targetPoint" />
          </mxGeometry>
        </mxCell>
        <mxCell id="pONqlh3g68kiD31-20ed-16" value="diary" style="ellipse;whiteSpace=wrap;html=1;align=center;" parent="1" vertex="1">
          <mxGeometry x="30" y="205" width="100" height="40" as="geometry" />
        </mxCell>
        <mxCell id="pONqlh3g68kiD31-20ed-17" value="genres" style="ellipse;whiteSpace=wrap;html=1;align=center;" parent="1" vertex="1">
          <mxGeometry x="30" y="150" width="100" height="40" as="geometry" />
        </mxCell>
        <mxCell id="pONqlh3g68kiD31-20ed-18" value="Tests" style="ellipse;whiteSpace=wrap;html=1;align=center;" parent="1" vertex="1">
          <mxGeometry x="30" y="50" width="100" height="40" as="geometry" />
        </mxCell>
        <mxCell id="pONqlh3g68kiD31-20ed-19" value="natal_chart" style="ellipse;whiteSpace=wrap;html=1;align=center;" parent="1" vertex="1">
          <mxGeometry x="30" y="100" width="100" height="40" as="geometry" />
        </mxCell>
        <mxCell id="pONqlh3g68kiD31-20ed-20" value="" style="endArrow=none;html=1;rounded=0;entryX=1;entryY=0.5;entryDx=0;entryDy=0;exitX=0;exitY=0;exitDx=0;exitDy=0;" parent="1" source="ctChK_Ej9cGx2efFHP4d-24" target="pONqlh3g68kiD31-20ed-19" edge="1">
          <mxGeometry relative="1" as="geometry">
            <mxPoint x="170" y="205" as="sourcePoint" />
            <mxPoint x="140" y="80" as="targetPoint" />
          </mxGeometry>
        </mxCell>
        <mxCell id="pONqlh3g68kiD31-20ed-22" value="" style="endArrow=none;html=1;rounded=0;entryX=0;entryY=0.25;entryDx=0;entryDy=0;exitX=1;exitY=0.5;exitDx=0;exitDy=0;" parent="1" source="pONqlh3g68kiD31-20ed-16" target="ctChK_Ej9cGx2efFHP4d-24" edge="1">
          <mxGeometry relative="1" as="geometry">
            <mxPoint x="140" y="180" as="sourcePoint" />
            <mxPoint x="170" y="205" as="targetPoint" />
          </mxGeometry>
        </mxCell>
        <mxCell id="pONqlh3g68kiD31-20ed-23" value="" style="endArrow=none;html=1;rounded=0;entryX=0;entryY=1;entryDx=0;entryDy=0;exitX=1;exitY=0.5;exitDx=0;exitDy=0;" parent="1" source="ctChK_Ej9cGx2efFHP4d-12" target="ctChK_Ej9cGx2efFHP4d-24" edge="1">
          <mxGeometry relative="1" as="geometry">
            <mxPoint x="140" y="600" as="sourcePoint" />
            <mxPoint x="170" y="265" as="targetPoint" />
          </mxGeometry>
        </mxCell>
        <mxCell id="DeEWB1xdx3V2AKXxCXWh-3" value="Questions" style="shape=ext;margin=3;double=1;whiteSpace=wrap;html=1;align=center;" parent="1" vertex="1">
          <mxGeometry x="234.20000000000005" y="-400" width="95.8" height="40" as="geometry" />
        </mxCell>
        <mxCell id="DeEWB1xdx3V2AKXxCXWh-4" value="Answears" style="shape=ext;margin=3;double=1;whiteSpace=wrap;html=1;align=center;" parent="1" vertex="1">
          <mxGeometry x="-35.799999999999955" y="-400" width="95.8" height="40" as="geometry" />
        </mxCell>
        <mxCell id="DeEWB1xdx3V2AKXxCXWh-6" value="Result" style="shape=ext;margin=3;double=1;whiteSpace=wrap;html=1;align=center;" parent="1" vertex="1">
          <mxGeometry x="-35.799999999999955" y="-160" width="95.8" height="40" as="geometry" />
        </mxCell>
        <mxCell id="DeEWB1xdx3V2AKXxCXWh-7" value="&lt;font style=&quot;font-size: 11px;&quot;&gt;belongs to&lt;/font&gt;" style="shape=rhombus;double=1;perimeter=rhombusPerimeter;whiteSpace=wrap;html=1;align=center;" parent="1" vertex="1">
          <mxGeometry x="242.10000000000002" y="-290" width="80" height="40" as="geometry" />
        </mxCell>
        <mxCell id="DeEWB1xdx3V2AKXxCXWh-10" value="&lt;font style=&quot;font-size: 11px;&quot;&gt;has&lt;/font&gt;" style="shape=rhombus;double=1;perimeter=rhombusPerimeter;whiteSpace=wrap;html=1;align=center;" parent="1" vertex="1">
          <mxGeometry x="110" y="-400" width="80" height="40" as="geometry" />
        </mxCell>
        <mxCell id="DeEWB1xdx3V2AKXxCXWh-13" value="has" style="shape=associativeEntity;whiteSpace=wrap;html=1;align=center;" parent="1" vertex="1">
          <mxGeometry x="-22.899999999999977" y="-290" width="70" height="30" as="geometry" />
        </mxCell>
        <mxCell id="DeEWB1xdx3V2AKXxCXWh-15" value="&lt;font style=&quot;font-size: 11px;&quot;&gt;has&lt;/font&gt;" style="shape=rhombus;double=1;perimeter=rhombusPerimeter;whiteSpace=wrap;html=1;align=center;" parent="1" vertex="1">
          <mxGeometry x="100" y="-160" width="80" height="40" as="geometry" />
        </mxCell>
        <mxCell id="DeEWB1xdx3V2AKXxCXWh-18" value="" style="endArrow=none;html=1;rounded=0;entryX=0.25;entryY=0;entryDx=0;entryDy=0;exitX=0.5;exitY=1;exitDx=0;exitDy=0;" parent="1" source="DeEWB1xdx3V2AKXxCXWh-7" target="DeEWB1xdx3V2AKXxCXWh-58" edge="1">
          <mxGeometry width="50" height="50" relative="1" as="geometry">
            <mxPoint x="-160" y="-40" as="sourcePoint" />
            <mxPoint x="281.0499999999997" y="-160" as="targetPoint" />
          </mxGeometry>
        </mxCell>
        <mxCell id="DeEWB1xdx3V2AKXxCXWh-19" value="" style="endArrow=none;html=1;rounded=0;entryX=0.5;entryY=0;entryDx=0;entryDy=0;exitX=0.5;exitY=1;exitDx=0;exitDy=0;" parent="1" source="DeEWB1xdx3V2AKXxCXWh-3" target="DeEWB1xdx3V2AKXxCXWh-7" edge="1">
          <mxGeometry width="50" height="50" relative="1" as="geometry">
            <mxPoint x="292" y="-240" as="sourcePoint" />
            <mxPoint x="292" y="-160" as="targetPoint" />
          </mxGeometry>
        </mxCell>
        <mxCell id="DeEWB1xdx3V2AKXxCXWh-20" value="" style="endArrow=none;html=1;rounded=0;entryX=1;entryY=0.5;entryDx=0;entryDy=0;exitX=0;exitY=0.5;exitDx=0;exitDy=0;" parent="1" source="DeEWB1xdx3V2AKXxCXWh-3" target="DeEWB1xdx3V2AKXxCXWh-10" edge="1">
          <mxGeometry width="50" height="50" relative="1" as="geometry">
            <mxPoint x="302" y="-230" as="sourcePoint" />
            <mxPoint x="302" y="-150" as="targetPoint" />
          </mxGeometry>
        </mxCell>
        <mxCell id="DeEWB1xdx3V2AKXxCXWh-21" value="" style="endArrow=none;html=1;rounded=0;entryX=0;entryY=0.5;entryDx=0;entryDy=0;exitX=1;exitY=0.5;exitDx=0;exitDy=0;" parent="1" source="DeEWB1xdx3V2AKXxCXWh-4" target="DeEWB1xdx3V2AKXxCXWh-10" edge="1">
          <mxGeometry width="50" height="50" relative="1" as="geometry">
            <mxPoint x="312" y="-220" as="sourcePoint" />
            <mxPoint x="312" y="-140" as="targetPoint" />
          </mxGeometry>
        </mxCell>
        <mxCell id="DeEWB1xdx3V2AKXxCXWh-22" value="" style="endArrow=none;html=1;rounded=0;entryX=0.5;entryY=0;entryDx=0;entryDy=0;exitX=0.5;exitY=1;exitDx=0;exitDy=0;" parent="1" source="DeEWB1xdx3V2AKXxCXWh-4" target="DeEWB1xdx3V2AKXxCXWh-13" edge="1">
          <mxGeometry width="50" height="50" relative="1" as="geometry">
            <mxPoint x="322" y="-210" as="sourcePoint" />
            <mxPoint x="322" y="-130" as="targetPoint" />
          </mxGeometry>
        </mxCell>
        <mxCell id="DeEWB1xdx3V2AKXxCXWh-23" value="" style="endArrow=none;html=1;rounded=0;entryX=0.5;entryY=0;entryDx=0;entryDy=0;exitX=0.5;exitY=1;exitDx=0;exitDy=0;" parent="1" source="DeEWB1xdx3V2AKXxCXWh-13" target="DeEWB1xdx3V2AKXxCXWh-6" edge="1">
          <mxGeometry width="50" height="50" relative="1" as="geometry">
            <mxPoint x="332" y="-200" as="sourcePoint" />
            <mxPoint x="332" y="-120" as="targetPoint" />
          </mxGeometry>
        </mxCell>
        <mxCell id="DeEWB1xdx3V2AKXxCXWh-24" value="" style="endArrow=none;html=1;rounded=0;entryX=0;entryY=0.5;entryDx=0;entryDy=0;exitX=1;exitY=0.5;exitDx=0;exitDy=0;" parent="1" source="DeEWB1xdx3V2AKXxCXWh-6" target="DeEWB1xdx3V2AKXxCXWh-15" edge="1">
          <mxGeometry width="50" height="50" relative="1" as="geometry">
            <mxPoint x="342" y="-190" as="sourcePoint" />
            <mxPoint x="342" y="-110" as="targetPoint" />
          </mxGeometry>
        </mxCell>
        <mxCell id="DeEWB1xdx3V2AKXxCXWh-25" value="" style="endArrow=none;html=1;rounded=0;entryX=0;entryY=0.5;entryDx=0;entryDy=0;exitX=1;exitY=0.5;exitDx=0;exitDy=0;" parent="1" source="DeEWB1xdx3V2AKXxCXWh-15" target="DeEWB1xdx3V2AKXxCXWh-58" edge="1">
          <mxGeometry width="50" height="50" relative="1" as="geometry">
            <mxPoint x="352" y="-180" as="sourcePoint" />
            <mxPoint x="222.09999999999968" y="-135" as="targetPoint" />
          </mxGeometry>
        </mxCell>
        <mxCell id="DeEWB1xdx3V2AKXxCXWh-26" value="test_id" style="ellipse;whiteSpace=wrap;html=1;align=center;" parent="1" vertex="1">
          <mxGeometry x="400" y="-200" width="100" height="40" as="geometry" />
        </mxCell>
        <mxCell id="DeEWB1xdx3V2AKXxCXWh-27" value="Title" style="ellipse;whiteSpace=wrap;html=1;align=center;" parent="1" vertex="1">
          <mxGeometry x="287.96" y="-235" width="100" height="40" as="geometry" />
        </mxCell>
        <mxCell id="DeEWB1xdx3V2AKXxCXWh-28" value="q_id" style="ellipse;whiteSpace=wrap;html=1;align=center;" parent="1" vertex="1">
          <mxGeometry x="200" y="-470" width="100" height="40" as="geometry" />
        </mxCell>
        <mxCell id="DeEWB1xdx3V2AKXxCXWh-29" value="question_values" style="ellipse;whiteSpace=wrap;html=1;align=center;" parent="1" vertex="1">
          <mxGeometry x="307.96000000000004" y="-480" width="100" height="40" as="geometry" />
        </mxCell>
        <mxCell id="DeEWB1xdx3V2AKXxCXWh-30" value="test_id" style="ellipse;whiteSpace=wrap;html=1;align=center;" parent="1" vertex="1">
          <mxGeometry x="387.96000000000004" y="-440" width="100" height="40" as="geometry" />
        </mxCell>
        <mxCell id="DeEWB1xdx3V2AKXxCXWh-31" value="question_id" style="ellipse;whiteSpace=wrap;html=1;align=center;" parent="1" vertex="1">
          <mxGeometry x="-180.00000000000006" y="-490" width="100" height="40" as="geometry" />
        </mxCell>
        <mxCell id="DeEWB1xdx3V2AKXxCXWh-32" value="text" style="ellipse;whiteSpace=wrap;html=1;align=center;" parent="1" vertex="1">
          <mxGeometry x="-75" y="-510" width="100" height="40" as="geometry" />
        </mxCell>
        <mxCell id="DeEWB1xdx3V2AKXxCXWh-33" value="answear_id" style="ellipse;whiteSpace=wrap;html=1;align=center;" parent="1" vertex="1">
          <mxGeometry x="-230" y="-430" width="100" height="40" as="geometry" />
        </mxCell>
        <mxCell id="DeEWB1xdx3V2AKXxCXWh-34" value="weight" style="ellipse;whiteSpace=wrap;html=1;align=center;" parent="1" vertex="1">
          <mxGeometry x="-210" y="-380" width="100" height="40" as="geometry" />
        </mxCell>
        <mxCell id="DeEWB1xdx3V2AKXxCXWh-35" value="result_id" style="ellipse;whiteSpace=wrap;html=1;align=center;" parent="1" vertex="1">
          <mxGeometry x="-180" y="-130" width="100" height="40" as="geometry" />
        </mxCell>
        <mxCell id="DeEWB1xdx3V2AKXxCXWh-36" value="test_id" style="ellipse;whiteSpace=wrap;html=1;align=center;" parent="1" vertex="1">
          <mxGeometry x="-170.00000000000006" y="-60" width="100" height="40" as="geometry" />
        </mxCell>
        <mxCell id="DeEWB1xdx3V2AKXxCXWh-40" value="" style="endArrow=none;html=1;rounded=0;entryX=0.5;entryY=1;entryDx=0;entryDy=0;exitX=0.5;exitY=0;exitDx=0;exitDy=0;" parent="1" source="DeEWB1xdx3V2AKXxCXWh-58" target="DeEWB1xdx3V2AKXxCXWh-27" edge="1">
          <mxGeometry width="50" height="50" relative="1" as="geometry">
            <mxPoint x="310.52499999999964" y="-160" as="sourcePoint" />
            <mxPoint x="292" y="-160" as="targetPoint" />
          </mxGeometry>
        </mxCell>
        <mxCell id="DeEWB1xdx3V2AKXxCXWh-41" value="" style="endArrow=none;html=1;rounded=0;entryX=0;entryY=1;entryDx=0;entryDy=0;exitX=1;exitY=0;exitDx=0;exitDy=0;" parent="1" source="DeEWB1xdx3V2AKXxCXWh-58" target="DeEWB1xdx3V2AKXxCXWh-26" edge="1">
          <mxGeometry width="50" height="50" relative="1" as="geometry">
            <mxPoint x="340" y="-160" as="sourcePoint" />
            <mxPoint x="302" y="-150" as="targetPoint" />
          </mxGeometry>
        </mxCell>
        <mxCell id="DeEWB1xdx3V2AKXxCXWh-42" value="" style="endArrow=none;html=1;rounded=0;entryX=1;entryY=0;entryDx=0;entryDy=0;exitX=0;exitY=1;exitDx=0;exitDy=0;" parent="1" source="DeEWB1xdx3V2AKXxCXWh-30" target="DeEWB1xdx3V2AKXxCXWh-3" edge="1">
          <mxGeometry width="50" height="50" relative="1" as="geometry">
            <mxPoint x="312" y="-220" as="sourcePoint" />
            <mxPoint x="312" y="-140" as="targetPoint" />
          </mxGeometry>
        </mxCell>
        <mxCell id="DeEWB1xdx3V2AKXxCXWh-43" value="" style="endArrow=none;html=1;rounded=0;exitX=0.5;exitY=1;exitDx=0;exitDy=0;" parent="1" source="DeEWB1xdx3V2AKXxCXWh-29" target="DeEWB1xdx3V2AKXxCXWh-3" edge="1">
          <mxGeometry width="50" height="50" relative="1" as="geometry">
            <mxPoint x="322" y="-210" as="sourcePoint" />
            <mxPoint x="322" y="-130" as="targetPoint" />
          </mxGeometry>
        </mxCell>
        <mxCell id="DeEWB1xdx3V2AKXxCXWh-44" value="" style="endArrow=none;html=1;rounded=0;entryX=0.25;entryY=0;entryDx=0;entryDy=0;exitX=0.5;exitY=1;exitDx=0;exitDy=0;" parent="1" source="DeEWB1xdx3V2AKXxCXWh-28" target="DeEWB1xdx3V2AKXxCXWh-3" edge="1">
          <mxGeometry width="50" height="50" relative="1" as="geometry">
            <mxPoint x="332" y="-200" as="sourcePoint" />
            <mxPoint x="332" y="-120" as="targetPoint" />
          </mxGeometry>
        </mxCell>
        <mxCell id="DeEWB1xdx3V2AKXxCXWh-45" value="" style="endArrow=none;html=1;rounded=0;entryX=0.5;entryY=0;entryDx=0;entryDy=0;exitX=0.5;exitY=1;exitDx=0;exitDy=0;" parent="1" source="DeEWB1xdx3V2AKXxCXWh-32" target="DeEWB1xdx3V2AKXxCXWh-4" edge="1">
          <mxGeometry width="50" height="50" relative="1" as="geometry">
            <mxPoint x="342" y="-190" as="sourcePoint" />
            <mxPoint x="342" y="-110" as="targetPoint" />
          </mxGeometry>
        </mxCell>
        <mxCell id="DeEWB1xdx3V2AKXxCXWh-46" value="" style="endArrow=none;html=1;rounded=0;entryX=0;entryY=0;entryDx=0;entryDy=0;exitX=1;exitY=1;exitDx=0;exitDy=0;" parent="1" source="DeEWB1xdx3V2AKXxCXWh-31" target="DeEWB1xdx3V2AKXxCXWh-4" edge="1">
          <mxGeometry width="50" height="50" relative="1" as="geometry">
            <mxPoint x="-15" y="-460" as="sourcePoint" />
            <mxPoint x="22" y="-390" as="targetPoint" />
          </mxGeometry>
        </mxCell>
        <mxCell id="DeEWB1xdx3V2AKXxCXWh-47" value="" style="endArrow=none;html=1;rounded=0;entryX=0;entryY=0.25;entryDx=0;entryDy=0;exitX=1;exitY=0.5;exitDx=0;exitDy=0;" parent="1" source="DeEWB1xdx3V2AKXxCXWh-33" target="DeEWB1xdx3V2AKXxCXWh-4" edge="1">
          <mxGeometry width="50" height="50" relative="1" as="geometry">
            <mxPoint x="-5" y="-450" as="sourcePoint" />
            <mxPoint x="32" y="-380" as="targetPoint" />
          </mxGeometry>
        </mxCell>
        <mxCell id="DeEWB1xdx3V2AKXxCXWh-48" value="" style="endArrow=none;html=1;rounded=0;entryX=0;entryY=0.75;entryDx=0;entryDy=0;exitX=1;exitY=0.5;exitDx=0;exitDy=0;" parent="1" source="DeEWB1xdx3V2AKXxCXWh-34" target="DeEWB1xdx3V2AKXxCXWh-4" edge="1">
          <mxGeometry width="50" height="50" relative="1" as="geometry">
            <mxPoint x="5" y="-440" as="sourcePoint" />
            <mxPoint x="42" y="-370" as="targetPoint" />
          </mxGeometry>
        </mxCell>
        <mxCell id="DeEWB1xdx3V2AKXxCXWh-50" value="" style="endArrow=none;html=1;rounded=0;entryX=1;entryY=0.5;entryDx=0;entryDy=0;exitX=0;exitY=0.5;exitDx=0;exitDy=0;" parent="1" source="DeEWB1xdx3V2AKXxCXWh-6" target="DeEWB1xdx3V2AKXxCXWh-35" edge="1">
          <mxGeometry width="50" height="50" relative="1" as="geometry">
            <mxPoint x="-2" y="-110" as="sourcePoint" />
            <mxPoint x="-30" y="-70" as="targetPoint" />
          </mxGeometry>
        </mxCell>
        <mxCell id="DeEWB1xdx3V2AKXxCXWh-51" value="" style="endArrow=none;html=1;rounded=0;entryX=1;entryY=0;entryDx=0;entryDy=0;exitX=0;exitY=1;exitDx=0;exitDy=0;" parent="1" source="DeEWB1xdx3V2AKXxCXWh-6" target="DeEWB1xdx3V2AKXxCXWh-36" edge="1">
          <mxGeometry width="50" height="50" relative="1" as="geometry">
            <mxPoint x="8" y="-100" as="sourcePoint" />
            <mxPoint x="-20" y="-60" as="targetPoint" />
          </mxGeometry>
        </mxCell>
        <mxCell id="DeEWB1xdx3V2AKXxCXWh-52" value="M" style="text;html=1;strokeColor=none;fillColor=none;align=center;verticalAlign=middle;whiteSpace=wrap;rounded=0;" parent="1" vertex="1">
          <mxGeometry x="265" y="-360" width="60" height="30" as="geometry" />
        </mxCell>
        <mxCell id="DeEWB1xdx3V2AKXxCXWh-53" value="M" style="text;html=1;strokeColor=none;fillColor=none;align=center;verticalAlign=middle;whiteSpace=wrap;rounded=0;" parent="1" vertex="1">
          <mxGeometry x="182.1" y="-380" width="60" height="30" as="geometry" />
        </mxCell>
        <mxCell id="DeEWB1xdx3V2AKXxCXWh-54" value="1" style="text;html=1;strokeColor=none;fillColor=none;align=center;verticalAlign=middle;whiteSpace=wrap;rounded=0;" parent="1" vertex="1">
          <mxGeometry x="262.1" y="-200" width="60" height="30" as="geometry" />
        </mxCell>
        <mxCell id="DeEWB1xdx3V2AKXxCXWh-55" value="M" style="text;html=1;strokeColor=none;fillColor=none;align=center;verticalAlign=middle;whiteSpace=wrap;rounded=0;" parent="1" vertex="1">
          <mxGeometry x="47.099999999999994" y="-380" width="60" height="30" as="geometry" />
        </mxCell>
        <mxCell id="DeEWB1xdx3V2AKXxCXWh-56" value="M" style="text;html=1;strokeColor=none;fillColor=none;align=center;verticalAlign=middle;whiteSpace=wrap;rounded=0;" parent="1" vertex="1">
          <mxGeometry x="-35" y="-360" width="60" height="30" as="geometry" />
        </mxCell>
        <mxCell id="DeEWB1xdx3V2AKXxCXWh-57" value="1" style="text;html=1;strokeColor=none;fillColor=none;align=center;verticalAlign=middle;whiteSpace=wrap;rounded=0;" parent="1" vertex="1">
          <mxGeometry x="-30" y="-190" width="60" height="30" as="geometry" />
        </mxCell>
        <mxCell id="DeEWB1xdx3V2AKXxCXWh-58" value="&lt;font style=&quot;font-size: 17px;&quot;&gt;Test&lt;/font&gt;" style="rounded=0;whiteSpace=wrap;html=1;" parent="1" vertex="1">
          <mxGeometry x="235" y="-160" width="120" height="60" as="geometry" />
        </mxCell>
        <mxCell id="UoIe5Hr0PjswqC9-iaPk-1" value="account_id" style="ellipse;whiteSpace=wrap;html=1;align=center;" vertex="1" parent="1">
          <mxGeometry x="30" width="100" height="40" as="geometry" />
        </mxCell>
        <mxCell id="UoIe5Hr0PjswqC9-iaPk-2" value="" style="endArrow=none;html=1;rounded=0;entryX=1;entryY=0.5;entryDx=0;entryDy=0;exitX=0;exitY=0;exitDx=0;exitDy=0;" edge="1" parent="1" source="ctChK_Ej9cGx2efFHP4d-24" target="UoIe5Hr0PjswqC9-iaPk-1">
          <mxGeometry relative="1" as="geometry">
            <mxPoint x="170" y="205" as="sourcePoint" />
            <mxPoint x="140" y="80" as="targetPoint" />
          </mxGeometry>
        </mxCell>
        <mxCell id="UoIe5Hr0PjswqC9-iaPk-4" value="" style="endArrow=none;html=1;rounded=0;entryX=1;entryY=0.5;entryDx=0;entryDy=0;exitX=0;exitY=0;exitDx=0;exitDy=0;" edge="1" parent="1" source="DeEWB1xdx3V2AKXxCXWh-6" target="UoIe5Hr0PjswqC9-iaPk-25">
          <mxGeometry width="50" height="50" relative="1" as="geometry">
            <mxPoint x="-26" y="-150" as="sourcePoint" />
            <mxPoint x="-80.00000000000591" y="-170" as="targetPoint" />
          </mxGeometry>
        </mxCell>
        <mxCell id="UoIe5Hr0PjswqC9-iaPk-5" value="chart_id" style="ellipse;whiteSpace=wrap;html=1;align=center;" vertex="1" parent="1">
          <mxGeometry x="1132.16" y="340" width="100" height="40" as="geometry" />
        </mxCell>
        <mxCell id="UoIe5Hr0PjswqC9-iaPk-6" value="" style="endArrow=none;html=1;rounded=0;exitX=1;exitY=1;exitDx=0;exitDy=0;entryX=0;entryY=0;entryDx=0;entryDy=0;" edge="1" parent="1" source="ctChK_Ej9cGx2efFHP4d-129" target="UoIe5Hr0PjswqC9-iaPk-5">
          <mxGeometry relative="1" as="geometry">
            <mxPoint x="1128" y="292" as="sourcePoint" />
            <mxPoint x="1260" y="260" as="targetPoint" />
          </mxGeometry>
        </mxCell>
        <mxCell id="UoIe5Hr0PjswqC9-iaPk-7" value="diary_id" style="ellipse;whiteSpace=wrap;html=1;align=center;" vertex="1" parent="1">
          <mxGeometry x="570" y="480" width="100" height="40" as="geometry" />
        </mxCell>
        <mxCell id="UoIe5Hr0PjswqC9-iaPk-8" value="" style="endArrow=none;html=1;rounded=0;entryX=0;entryY=0.5;entryDx=0;entryDy=0;exitX=1;exitY=0;exitDx=0;exitDy=0;" edge="1" parent="1" source="ctChK_Ej9cGx2efFHP4d-71" target="UoIe5Hr0PjswqC9-iaPk-7">
          <mxGeometry relative="1" as="geometry">
            <mxPoint x="474" y="560" as="sourcePoint" />
            <mxPoint x="580" y="560" as="targetPoint" />
          </mxGeometry>
        </mxCell>
        <mxCell id="UoIe5Hr0PjswqC9-iaPk-10" value="input_data_id" style="ellipse;whiteSpace=wrap;html=1;align=center;" vertex="1" parent="1">
          <mxGeometry x="800" y="151.5" width="100" height="40" as="geometry" />
        </mxCell>
        <mxCell id="UoIe5Hr0PjswqC9-iaPk-11" value="" style="endArrow=none;html=1;rounded=0;entryX=1;entryY=0.5;entryDx=0;entryDy=0;exitX=0;exitY=0.75;exitDx=0;exitDy=0;" edge="1" parent="1" source="ctChK_Ej9cGx2efFHP4d-91" target="UoIe5Hr0PjswqC9-iaPk-10">
          <mxGeometry relative="1" as="geometry">
            <mxPoint x="1018" y="155" as="sourcePoint" />
            <mxPoint x="890" y="120" as="targetPoint" />
          </mxGeometry>
        </mxCell>
        <mxCell id="UoIe5Hr0PjswqC9-iaPk-13" value="" style="endArrow=none;html=1;rounded=0;entryX=0;entryY=0.5;entryDx=0;entryDy=0;exitX=1;exitY=0;exitDx=0;exitDy=0;" edge="1" parent="1" source="ctChK_Ej9cGx2efFHP4d-113" target="ctChK_Ej9cGx2efFHP4d-117">
          <mxGeometry relative="1" as="geometry">
            <mxPoint x="1384" y="245" as="sourcePoint" />
            <mxPoint x="1490" y="160" as="targetPoint" />
          </mxGeometry>
        </mxCell>
        <mxCell id="UoIe5Hr0PjswqC9-iaPk-14" value="planets_id" style="ellipse;whiteSpace=wrap;html=1;align=center;" vertex="1" parent="1">
          <mxGeometry x="1480" y="30" width="100" height="40" as="geometry" />
        </mxCell>
        <mxCell id="UoIe5Hr0PjswqC9-iaPk-15" value="" style="endArrow=none;html=1;rounded=0;entryX=0;entryY=0.5;entryDx=0;entryDy=0;exitX=1;exitY=0;exitDx=0;exitDy=0;" edge="1" parent="1" source="ctChK_Ej9cGx2efFHP4d-113" target="UoIe5Hr0PjswqC9-iaPk-14">
          <mxGeometry relative="1" as="geometry">
            <mxPoint x="1384" y="230" as="sourcePoint" />
            <mxPoint x="1490" y="110" as="targetPoint" />
          </mxGeometry>
        </mxCell>
        <mxCell id="UoIe5Hr0PjswqC9-iaPk-17" value="houses_id" style="ellipse;whiteSpace=wrap;html=1;align=center;" vertex="1" parent="1">
          <mxGeometry x="1210" y="460" width="100" height="40" as="geometry" />
        </mxCell>
        <mxCell id="UoIe5Hr0PjswqC9-iaPk-18" value="" style="endArrow=none;html=1;rounded=0;entryX=0;entryY=0.5;entryDx=0;entryDy=0;exitX=0.75;exitY=0;exitDx=0;exitDy=0;" edge="1" parent="1" source="ctChK_Ej9cGx2efFHP4d-144" target="UoIe5Hr0PjswqC9-iaPk-17">
          <mxGeometry relative="1" as="geometry">
            <mxPoint x="1073" y="640" as="sourcePoint" />
            <mxPoint x="1220" y="540" as="targetPoint" />
          </mxGeometry>
        </mxCell>
        <mxCell id="UoIe5Hr0PjswqC9-iaPk-21" value="genres_id" style="ellipse;whiteSpace=wrap;html=1;align=center;" vertex="1" parent="1">
          <mxGeometry x="640" y="245" width="100" height="40" as="geometry" />
        </mxCell>
        <mxCell id="UoIe5Hr0PjswqC9-iaPk-22" value="" style="endArrow=none;html=1;rounded=0;entryX=0;entryY=0.5;entryDx=0;entryDy=0;exitX=1;exitY=0.25;exitDx=0;exitDy=0;" edge="1" parent="1" source="ctChK_Ej9cGx2efFHP4d-63" target="UoIe5Hr0PjswqC9-iaPk-21">
          <mxGeometry relative="1" as="geometry">
            <mxPoint x="630" y="290" as="sourcePoint" />
            <mxPoint x="661" y="316" as="targetPoint" />
          </mxGeometry>
        </mxCell>
        <mxCell id="UoIe5Hr0PjswqC9-iaPk-23" value="category_id" style="ellipse;whiteSpace=wrap;html=1;align=center;" vertex="1" parent="1">
          <mxGeometry x="-10" y="730" width="100" height="40" as="geometry" />
        </mxCell>
        <mxCell id="UoIe5Hr0PjswqC9-iaPk-24" value="" style="endArrow=none;html=1;rounded=0;entryX=1;entryY=0.5;entryDx=0;entryDy=0;exitX=0;exitY=1;exitDx=0;exitDy=0;" edge="1" parent="1" source="ctChK_Ej9cGx2efFHP4d-87" target="UoIe5Hr0PjswqC9-iaPk-23">
          <mxGeometry relative="1" as="geometry">
            <mxPoint x="192" y="740" as="sourcePoint" />
            <mxPoint x="140" y="780" as="targetPoint" />
          </mxGeometry>
        </mxCell>
        <mxCell id="UoIe5Hr0PjswqC9-iaPk-25" value="result" style="ellipse;whiteSpace=wrap;html=1;align=center;dashed=1;" vertex="1" parent="1">
          <mxGeometry x="-180" y="-190" width="100" height="40" as="geometry" />
        </mxCell>
      </root>
    </mxGraphModel>
  </diagram>
  <diagram id="d7N74u-OyoN9jq7zh6r1" name="Page-2">
    <mxGraphModel dx="1434" dy="827" grid="1" gridSize="10" guides="1" tooltips="1" connect="1" arrows="1" fold="1" page="1" pageScale="1" pageWidth="850" pageHeight="1100" math="0" shadow="0">
      <root>
        <mxCell id="0" />
        <mxCell id="1" parent="0" />
      </root>
    </mxGraphModel>
  </diagram>
</mxfile>
